<?xml version="1.0" encoding="UTF-8"?><svg id="Layer_2" xmlns="http://www.w3.org/2000/svg" viewBox="0 0 302.07 100.69"><defs><style>.cls-1{fill:#fff;}</style></defs><g id="Layer_1-2"><g><path class="cls-1" d="M106.51,79.41c0,5.9,.03,11.8-.01,17.7-.01,1.95-1.7,3.53-3.64,3.56-1.49,.02-2.98-.02-4.46,.02-.77,.02-1.04-.16-.69-.94,1.98-4.47,2.3-9.21,1.91-13.97-.26-3.19-1.25-6.26-2.63-9.18-1.55-3.3-3.03-6.63-4.96-9.73-.83-1.33-1.91-2.28-3.59-2.58-1.86-.33-2.82-2.99-2.33-4.86,1.1-4.2,.74-8.29-1.88-11.93-.59-.83-1.77-.77-2.54-1.29-3.4-2.28-6.28-1.12-9.08,1.11-1.12,.89-2.21,1.82-3.37,2.65-2.28,1.63-2.18,4.24-1.16,6.29,.88,1.76,1.4,3.69,3.25,4.85,.79,.5,.3,1.65,.61,2.46,.3,.78,.21,1.67,1.5,1.75,.74,.05,1.04,1.06,1.49,1.66,1.22,1.6,2.07,1.8,3.86,.83,.55-.3,1.15-1.17,1.71-.67,.56,.49,.74,1.42,.68,2.28-.05,.73-.21,1.56-.7,1.98-1.92,1.65-2.02,3.77-1.89,6.02,.04,.64,.31,1.63-.27,1.84-.68,.25-1.53-.1-2.26-.59-1.24-.84-1.93-2.2-3.17-3.05-1.91-1.32-4.97-1.25-6.6,.39-.58,.58-1.08,1.23-1.63,1.83-.97,1.05-2.2,1.06-2.88-.17-.63-1.16-1.51-1.48-2.66-1.29-1.13,.18-1.76-.31-2.32-1.23-1.65-2.69-3.35-5.34-5.08-7.98-.39-.59-.68-1.66-1.82-.8-.86,.65-1.69,1.08-.76,2.41,1.9,2.7,3.63,5.52,5.44,8.27,.26,.39,.59,.78,.53,1.25-.28,2.41,1.02,4.19,2.31,5.97,.51,.7,.66,1.37,.26,2.14-.71,1.35-1.37,2.8-2.6,3.72-1.58,1.18-2.46,2.71-2.78,4.57-.15,.88-.66,1.34-1.35,1.72-2.84,1.57-5.75,2.98-8.8,4.11-.46,.17-1.01,.15-1.51,.15-6,0-12,.01-18,0-2.61,0-4.23-1.49-4.24-4.12-.04-11.65-.01-23.29-.03-34.94,0-.87,.39-1.38,1.02-1.92,11.86-9.9,23.7-19.82,35.55-29.74,2.26-1.89,4.57-3.74,6.8-5.67,.64-.55,.97-.59,1.64-.03,7.94,6.72,15.92,13.4,23.89,20.08,5.98,5.01,11.97,10.02,17.99,14.98,.96,.79,1.37,1.6,1.35,2.85-.06,5.75-.03,11.49-.03,17.24-.02,0-.04,0-.06,0Z"/><path class="cls-1" d="M27.01,.03c2.36,0,4.72,.03,7.08-.01,.97-.02,1.32,.32,1.37,1.33,.23,4.62,.04,9.23,.11,13.85,.01,.91-.15,1.95,.96,2.37,1.09,.41,1.92-.14,2.75-.84,5.76-4.88,11.64-9.61,17.3-14.6,3.59-3.17,8.95-2.55,12.51,.51,7.42,6.38,14.96,12.63,22.48,18.89,10.62,8.84,21.27,17.64,31.9,26.46,.2,.16,.41,.31,.6,.48,1.54,1.38,1.53,1.38,.19,3.02-1.09,1.34-2.14,2.72-3.25,4.05-1.4,1.69-1.83,1.75-3.48,.38-6.2-5.14-12.36-10.31-18.56-15.45-7.81-6.47-15.63-12.93-23.44-19.39-3.85-3.19-7.71-6.35-11.53-9.58-1.12-.95-1.98-.87-3.08,.06-5.72,4.84-11.47,9.64-17.24,14.43-10.47,8.69-20.95,17.35-31.42,26.03-1.77,1.46-3.56,2.89-5.31,4.37-.88,.74-1.58,.74-2.33-.18-1.35-1.66-2.78-3.24-4.12-4.9-.72-.89-.66-1.66,.32-2.48,5.1-4.23,10.12-8.56,15.25-12.76,1.49-1.22,2.11-2.7,2.12-4.5,.02-6.46,.19-12.93-.07-19.39-.14-3.43-.1-6.83,.05-10.25,.06-1.37,.52-1.93,1.93-1.88,2.3,.08,4.61,.02,6.92,.02Z"/><path class="cls-1" d="M194.3,81.38c0-5.43,.03-10.86-.02-16.3-.01-1.22,.25-1.71,1.6-1.68,4.05,.09,8.1-.06,12.14,.07,3.01,.1,6,.51,8.74,1.97,3.1,1.65,4.17,4.36,3.91,7.67-.22,2.91-1.52,5.24-4.23,6.61-.35,.18-.93,.14-.97,.6-.06,.58,.58,.67,.96,.83,4.42,1.73,5.37,5.33,4.84,9.48-.47,3.62-2.74,6.01-6.11,7.38-2.31,.94-4.72,1.36-7.19,1.38-4.05,.04-8.1-.04-12.14,.04-1.26,.02-1.56-.42-1.55-1.6,.05-5.48,.02-10.97,.02-16.45Zm9.14,6.8c0,.82,.05,1.64-.01,2.46-.07,1.08,.4,1.48,1.45,1.43,1.13-.05,2.26,0,3.38-.03,1.26-.03,2.27-.59,2.94-1.67,1.66-2.65,.29-5.4-3.03-6.16-3.93-.9-4.73-.28-4.73,3.65,0,.1,0,.21,0,.31Zm0-14.12c.1,3.52-.8,3.31,3.37,3.28,.46,0,.92,0,1.38-.06,1.4-.21,2.74-1.45,2.95-2.74,.25-1.52-.24-2.78-1.64-3.43-.8-.37-1.76-.47-2.66-.56-3.16-.33-3.39-.11-3.39,3.06v.46Z"/><path class="cls-1" d="M271.39,99.58c-4.37,.09-8.43-.82-11.82-3.77-3.49-3.04-4.82-7.13-5.19-11.52-.34-4.03-.21-8.05,1.3-11.94,1.45-3.73,3.85-6.57,7.54-7.98,6.29-2.41,12.58-2.41,18.55,1.11,3.08,1.82,4.79,4.7,5.79,8.09,1.32,4.48,1.37,9.04,.48,13.53-1.31,6.66-5.55,11.69-13.89,12.36-.92,.07-1.84,.09-2.76,.14Zm7.47-18.23c.02-2.01-.18-3.97-.78-5.91-.95-3.08-3.07-4.92-6.37-4.96-3.05-.04-5.2,.84-6.54,4.04-1.73,4.13-1.63,8.41-.33,12.62,.85,2.77,2.84,4.45,5.79,4.75,2.62,.27,4.9-.53,6.41-2.75,1.58-2.33,1.81-5.05,1.81-7.79Z"/><path class="cls-1" d="M115.65,81.31c0-5.33,.05-10.67-.03-16-.02-1.43,.28-1.96,1.83-1.91,3.95,.12,7.9-.05,11.85,.08,3.07,.1,6.12,.51,8.89,2.03,2.39,1.31,3.61,3.33,3.74,6.05,.18,3.8-.99,6.81-4.74,8.37-.68,.28-.59,.63-.03,.94,.71,.39,1.46,.7,2.16,1.1,3.41,1.98,3.92,6.42,2.99,9.83-1.09,3.96-4.09,5.93-7.85,6.9-2.14,.55-4.33,.76-6.55,.72-3.59-.06-7.18-.05-10.77,0-1.14,.02-1.51-.33-1.5-1.49,.05-5.54,.02-11.08,.02-16.62Zm9.08,6.79c.08,4.58-.72,3.91,3.96,3.96,.26,0,.51,0,.77,0,2.85-.1,4.6-3.04,3.33-5.6-.96-1.94-2.78-2.25-4.64-2.34-3.42-.16-3.42-.12-3.42,3.22,0,.26,0,.51,0,.77Zm0-14.16c.1,3.65-.83,3.43,3.58,3.39,.36,0,.72,0,1.07-.05,1.8-.21,3.05-1.61,3.07-3.41,.02-1.99-.83-2.75-3.6-3.24-3.69-.65-4.12-.31-4.12,3.31Z"/><path class="cls-1" d="M189.92,87.9c0,2.77-.03,5.54,.02,8.31,.02,1.06-.39,1.44-1.42,1.75-4.98,1.5-10.07,1.86-15.21,1.45-6.22-.49-11.17-4.44-12.99-10.41-1.38-4.53-1.58-9.09-.51-13.64,1.3-5.47,4.59-9.38,9.97-11.26,4.23-1.48,8.56-1.71,12.99-.83,1.76,.35,3.48,.73,5.17,1.29,.97,.32,.99,.88,.7,1.62-.7,1.8-1.41,3.6-2.15,5.39-.32,.78-.86,.44-1.4,.22-2.24-.95-4.63-1.36-7.02-1.34-3.94,.05-6.94,1.19-8.46,5.69-1.44,4.26-1.45,8.59,.95,12.6,1.74,2.92,6.8,4.33,9.89,2.97,.67-.3,.86-.81,.85-1.48-.02-1.18-.05-2.36,0-3.54,.05-.97-.46-1.29-1.29-1.3-1.38-.02-2.77-.04-4.15-.01-.72,.01-1-.26-.99-.99,.04-1.69,.03-3.39,0-5.08,0-.76,.26-1.1,1.08-1.09,4.31,.03,8.62,.04,12.93,0,.98,0,1.05,.48,1.04,1.24-.02,2.82,0,5.64,0,8.46Z"/><path class="cls-1" d="M224.98,81.28c0-5.44,.03-10.88-.03-16.31-.01-1.2,.3-1.59,1.54-1.56,3.69,.08,7.39-.05,11.08,.06,2.97,.09,5.9,.57,8.57,2.04,2.7,1.48,4.14,3.73,4.48,6.81,.49,4.49-.96,8.03-4.78,10.51-.93,.6-.97,1.19-.33,2.14,2.94,4.35,5.79,8.75,8.65,13.15,.21,.32,.7,.6,.45,1.05-.24,.42-.75,.23-1.14,.23-2.51,.01-5.03-.03-7.54,.03-1,.02-1.58-.32-2.07-1.2-2.04-3.65-4.2-7.22-6.2-10.89-.75-1.37-1.83-1.27-2.99-1.08-.77,.12-.62,.84-.62,1.38,0,3.39-.06,6.77,.02,10.16,.03,1.29-.39,1.7-1.67,1.64-2-.09-4-.09-6,0-1.18,.05-1.48-.4-1.47-1.52,.05-5.54,.02-11.08,.02-16.62Zm9.08-6.53c0,4.81,.14,4.93,4.4,4.06,1.63-.34,2.79-1.87,2.9-3.85,.12-2.04-.69-3.61-2.31-4.03-1.12-.3-2.32-.33-3.49-.4-1.08-.06-1.57,.52-1.51,1.62,.05,.87,0,1.74,0,2.61Z"/><path class="cls-1" d="M146.26,81.41c0-5.49,.04-10.97-.03-16.46-.01-1.25,.38-1.59,1.58-1.54,2.1,.09,4.2,.06,6.3,0,.97-.03,1.36,.24,1.36,1.28-.03,11.13-.03,22.25,0,33.38,0,1.01-.35,1.36-1.34,1.33-2.1-.05-4.21-.08-6.3,0-1.2,.05-1.61-.3-1.59-1.55,.06-5.49,.03-10.97,.03-16.46Z"/><path class="cls-1" d="M302.06,49.79c.29,5.24-4.44,9.96-9.92,9.82-5.2-.14-9.65-4.19-9.63-9.84,.02-5.5,4.4-9.89,10.12-9.76,5.07,.11,9.65,4.46,9.43,9.79Zm-2.01,.09c.17-4.22-3.36-7.87-7.74-7.84-4.3,.03-7.76,3.37-7.74,7.79,.02,4.61,3.74,7.75,7.78,7.74,4.37,0,7.82-3.72,7.7-7.69Z"/><path class="cls-1" d="M297.63,55.2c-1.11,0-2.09-.02-3.06,0-.48,.01-.71-.18-.89-.61-.38-.92-.81-1.82-1.25-2.72-.14-.29-.14-.84-.64-.73-.45,.1-.21,.57-.22,.86-.03,.81-.04,1.62,0,2.42,.02,.53-.1,.76-.7,.78-2.93,.11-2.93,.13-2.93-2.79,0-2.56,.02-5.12-.01-7.67,0-.67,.11-.96,.86-.92,1.97,.1,3.95-.18,5.89,.42,1.26,.39,2.13,1.19,2.3,2.49,.18,1.34-.04,2.63-1.31,3.44-.47,.3-.4,.55-.17,.96,.72,1.3,1.39,2.63,2.13,4.05Zm-6.07-7.71q0,1.4,.41,1.38c.82-.03,1.42-.61,1.42-1.37,0-.76-.53-1.29-1.39-1.21-.92,.09-.18,.88-.43,1.19Z"/></g></g></svg>